<svg id="visual" viewBox="0 0 900 600" width="900" height="600" xmlns="http://www.w3.org/2000/svg" xmlns:xlink="http://www.w3.org/1999/xlink" version="1.1"><rect x="0" y="0" width="900" height="600" fill="#FFFFFF"></rect><defs><linearGradient id="grad1_0" x1="33.3%" y1="0%" x2="100%" y2="100%"><stop offset="20%" stop-color="#ffffff" stop-opacity="1"></stop><stop offset="80%" stop-color="#ffffff" stop-opacity="1"></stop></linearGradient></defs><defs><linearGradient id="grad2_0" x1="0%" y1="0%" x2="66.7%" y2="100%"><stop offset="20%" stop-color="#ffffff" stop-opacity="1"></stop><stop offset="80%" stop-color="#ffffff" stop-opacity="1"></stop></linearGradient></defs><g transform="translate(900, 0)"><path d="M0 378.6C-37 346.5 -74 314.5 -125.1 302.1C-176.3 289.8 -241.5 297.1 -267.7 267.7C-293.9 238.3 -280.9 172.1 -292.9 121.3C-304.8 70.6 -341.7 35.3 -378.6 0L0 0Z" fill="#92DEBA"></path></g><g transform="translate(0, 600)"><path d="M0 -378.6C44.2 -352.9 88.5 -327.1 125.5 -303C162.5 -278.9 192.4 -256.4 232.6 -232.6C272.9 -208.9 323.7 -183.9 349.8 -144.9C375.8 -105.9 377.2 -52.9 378.6 0L0 0Z" fill="#92DEBA"></path></g></svg>